<?xml version="1.0" encoding="UTF-8"?>
<svg id="Layer_1" data-name="Layer 1" xmlns="http://www.w3.org/2000/svg" viewBox="0 0 358.88 95.35">
  <defs>
    <style>
      .cls-1, .cls-2 {
        fill: #005bac;
      }

      .cls-2 {
        fill-rule: evenodd;
      }
    </style>
  </defs>
  <g id="s_copy_3" data-name="s copy 3">
    <path class="cls-2" d="M45.56,36.98c-7.07-2.09-19.13-4.82-19.13-9.64,0-2.02,2.03-6.3,13.06-6.3s13.74,4.27,13.74,7.21l20.8-.1C71.77,4.66,51.51,0,39.77,0,21.28,0,5.2,11.74,5.2,29.43c0,12.06,9.65,19.62,21.22,23.32,17.04,6.59,29.05,7.32,29.05,14.23,0,3.06-5.5,7.21-14.86,7.21-10.23,0-15.31-4.06-15.31-8.33l-21.23-.08c2.41,23.48,22.83,29.59,36.34,29.59,19.78,0,36.34-11.58,36.34-30.39s-16.08-23.8-31.19-27.98Z"/>
  </g>
  <path class="cls-1" d="M205.74,95.35h21.46V56.53c0-4.37-.09-14.89,11.49-14.89s12.03,9.74,12.03,14.76v38.95h21.46V50.74c0-14.01-4.4-19.67-8.27-23.01-3.88-3.34-11.51-6.17-18.36-6.17-4.02,0-8.79-.05-13.88-.02-6.43,.03-13.74,2.75-17.41,6.14-3.91,3.61-8.4,9.04-8.52,22.48-.18,20.36,0,45.2,0,45.2Z"/>
  <g>
    <g id="Ellipse_1_copy_5" data-name="Ellipse 1 copy 5">
      <ellipse class="cls-1" cx="181.09" cy="10.72" rx="10.78" ry="10.72"/>
    </g>
    <path class="cls-1" d="M190.78,24.66c-1.63,.91-5.08,2.46-9.86,2.46s-8.06-1.55-9.59-2.47c-.7-.42-.97-.4-.97,.51V95.35h21.46V25.16c0-.92-.3-.92-1.04-.5Z"/>
  </g>
  <path class="cls-1" d="M90.35,95.35h21.46V56.53c0-4.37-.09-14.89,11.49-14.89s12.03,9.74,12.03,14.76v38.95h21.46V50.74c0-14.01-4.4-19.67-8.27-23.01-3.88-3.34-11.51-6.17-18.36-6.17-4.02,0-8.79-.05-13.88-.02-6.43,.03-13.74,2.75-17.41,6.14-3.91,3.61-8.4,9.04-8.52,22.48-.18,20.36,0,45.2,0,45.2Z"/>
  <path class="cls-1" d="M358.86,55.67c-1.66-19.37-16.64-34.22-36.64-34.22-21.22,0-36.54,17.85-36.54,37.2,0,20.6,16.95,36.7,36.92,36.7,7.16,0,14.06-2.12,19.84-6.24,5.9-3.99,10.8-9.99,14.19-17.73h-21.35c-2.89,3.62-6.28,6.49-12.68,6.49-8.16,0-18.15-8.52-18.15-19.52,0,0-1-19.43,17.9-19.43,8.53,0,12.91,4.83,14.81,8.89,1.29,2.54-2.45,2.97-2.45,2.97h-22.25v13.98h36s11,.59,10.42-9.1Z"/>
</svg>